<?xml version="1.0" encoding="utf-8"?>
<!-- Generator: Adobe Illustrator 14.0.0, SVG Export Plug-In . SVG Version: 6.00 Build 43363)  -->
<!DOCTYPE svg PUBLIC "-//W3C//DTD SVG 1.1//EN" "http://www.w3.org/Graphics/SVG/1.1/DTD/svg11.dtd">
<svg version="1.1" id="Layer_1" xmlns="http://www.w3.org/2000/svg" xmlns:xlink="http://www.w3.org/1999/xlink" x="0px" y="0px"
	 width="50px" height="50px" viewBox="0 0 50 50" enable-background="new 0 0 50 50" xml:space="preserve">
<g>
	<g>
		<g>
			<g>
				<defs>
					<rect id="SVGID_1_" y="-0.13" width="50" height="50.26"/>
				</defs>
				<clipPath id="SVGID_2_">
					<use xlink:href="#SVGID_1_"  overflow="visible"/>
				</clipPath>
				
					<line clip-path="url(#SVGID_2_)" fill="none" stroke="#000000" stroke-width="3" stroke-dasharray="4,4,4,4,4,4" x1="47.11" y1="32.854" x2="0" y2="32.854"/>
			</g>
		</g>
	</g>
	<g>
		<g>
			<g>
				<defs>
					<rect id="SVGID_3_" y="-0.13" width="50" height="50.26"/>
				</defs>
				<clipPath id="SVGID_4_">
					<use xlink:href="#SVGID_3_"  overflow="visible"/>
				</clipPath>
				<polygon clip-path="url(#SVGID_4_)" fill="#010101" points="10.718,29.034 4.104,32.848 10.718,36.672 13.222,38.113 
					13.222,40.486 6.612,36.672 0,32.848 6.612,29.034 13.222,25.219 13.222,27.59 				"/>
			</g>
		</g>
	</g>
	<g>
		<g>
			<g>
				<defs>
					<rect id="SVGID_5_" y="-0.13" width="50" height="50.26"/>
				</defs>
				<clipPath id="SVGID_6_">
					<use xlink:href="#SVGID_5_"  overflow="visible"/>
				</clipPath>
				<polygon clip-path="url(#SVGID_6_)" points="7.254,21.891 3.222,19.563 7.254,17.234 8.782,16.352 8.782,14.905 4.75,17.234 
					0.717,19.563 4.75,21.891 8.782,24.219 8.782,22.773 				"/>
			</g>
		</g>
	</g>
	<g>
		<g>
			<g>
				<defs>
					<rect id="SVGID_7_" y="-0.13" width="50" height="50.26"/>
				</defs>
				<clipPath id="SVGID_8_">
					<use xlink:href="#SVGID_7_"  overflow="visible"/>
				</clipPath>
				<polygon clip-path="url(#SVGID_8_)" points="15.071,21.891 11.039,19.563 15.071,17.234 16.599,16.352 16.599,14.905 
					12.567,17.234 8.535,19.563 12.567,21.891 16.599,24.219 16.599,22.773 				"/>
			</g>
		</g>
	</g>
	<g>
		<g>
			<g>
				<defs>
					<rect id="SVGID_9_" y="-0.13" width="50" height="50.26"/>
				</defs>
				<clipPath id="SVGID_10_">
					<use xlink:href="#SVGID_9_"  overflow="visible"/>
				</clipPath>
				<polygon clip-path="url(#SVGID_10_)" points="43.463,21.891 47.496,19.563 43.463,17.234 41.936,16.352 41.936,14.905 
					45.967,17.234 50,19.563 45.967,21.891 41.936,24.219 41.936,22.773 				"/>
			</g>
		</g>
	</g>
	<g>
		<g>
			<g>
				<defs>
					<rect id="SVGID_11_" y="-0.13" width="50" height="50.26"/>
				</defs>
				<clipPath id="SVGID_12_">
					<use xlink:href="#SVGID_11_"  overflow="visible"/>
				</clipPath>
				<polygon clip-path="url(#SVGID_12_)" points="35.646,21.891 39.678,19.563 35.646,17.234 34.117,16.352 34.117,14.905 
					38.148,17.234 42.184,19.563 38.148,21.891 34.117,24.219 34.117,22.773 				"/>
			</g>
		</g>
	</g>
</g>
<g>
	<g enable-background="new    ">
		<path d="M19.017,23.435V7.698h11.668v2.662h-8.493v3.489h7.9V16.5h-7.9v4.283h8.792v2.651L19.017,23.435L19.017,23.435z"/>
	</g>
</g>
</svg>
