<?xml version="1.0" encoding="UTF-8" standalone="no"?>
<!-- Generator: Adobe Illustrator 14.0.0, SVG Export Plug-In . SVG Version: 6.00 Build 43363)  -->

<svg
   xmlns:dc="http://purl.org/dc/elements/1.1/"
   xmlns:cc="http://creativecommons.org/ns#"
   xmlns:rdf="http://www.w3.org/1999/02/22-rdf-syntax-ns#"
   xmlns:svg="http://www.w3.org/2000/svg"
   xmlns="http://www.w3.org/2000/svg"
   xmlns:xlink="http://www.w3.org/1999/xlink"
   xmlns:sodipodi="http://sodipodi.sourceforge.net/DTD/sodipodi-0.dtd"
   xmlns:inkscape="http://www.inkscape.org/namespaces/inkscape"
   version="1.1"
   id="Layer_1"
   x="0px"
   y="0px"
   width="53"
   height="53"
   viewBox="0 0 53 53"
   enable-background="new 0 0 50 50"
   xml:space="preserve"
   inkscape:version="0.91 r13725"
   sodipodi:docname="Include.svg"><metadata
     id="metadata95"><rdf:RDF><cc:Work
         rdf:about=""><dc:format>image/svg+xml</dc:format><dc:type
           rdf:resource="http://purl.org/dc/dcmitype/StillImage" /><dc:title></dc:title></cc:Work></rdf:RDF></metadata><defs
     id="defs93" /><sodipodi:namedview
     pagecolor="#ffffff"
     bordercolor="#666666"
     borderopacity="1"
     objecttolerance="10"
     gridtolerance="10"
     guidetolerance="10"
     inkscape:pageopacity="0"
     inkscape:pageshadow="2"
     inkscape:window-width="2560"
     inkscape:window-height="1315"
     id="namedview91"
     showgrid="false"
     inkscape:zoom="4.72"
     inkscape:cx="-11.864407"
     inkscape:cy="25"
     inkscape:window-x="1680"
     inkscape:window-y="0"
     inkscape:window-maximized="1"
     inkscape:current-layer="g5" /><g
     id="g3"
     transform="translate(0,3)"><g
       id="g5"
       transform="translate(-0.69999999,0)"><g
         id="g7"
         transform="matrix(0.84907665,0,0,1,0.65583132,2.007)"><g
           id="g9"><defs
             id="defs11"><rect
               id="SVGID_1_"
               y="-0.13"
               width="50"
               height="50.259998"
               x="0" /></defs><clipPath
             id="SVGID_2_"><use
               xlink:href="#SVGID_1_"
               overflow="visible"
               id="use15"
               style="overflow:visible"
               x="0"
               y="0"
               width="100%"
               height="100%" /></clipPath><line
             clip-path="url(#SVGID_2_)"
             x1="47.522999"
             y1="32.854"
             x2="0.41299999"
             y2="32.854"
             id="line17"
             style="fill:none;stroke:#000000;stroke-width:3;stroke-dasharray:4, 4, 4, 4, 4, 4" /></g></g></g><g
       id="g19"
       transform="matrix(-1,0,0,-1,52.3155,67.712)"><g
         id="g21"><g
           id="g23"><defs
             id="defs25"><rect
               id="SVGID_3_"
               y="-0.13"
               width="50"
               height="50.259998"
               x="0" /></defs><clipPath
             id="SVGID_4_"><use
               xlink:href="#SVGID_3_"
               overflow="visible"
               id="use29"
               style="overflow:visible"
               x="0"
               y="0"
               width="100%"
               height="100%" /></clipPath><polygon
             clip-path="url(#SVGID_4_)"
             points="13.222,38.113 13.222,40.486 6.612,36.672 0,32.848 6.612,29.034 13.222,25.219 13.222,27.59 10.718,29.034 4.104,32.848 10.718,36.672 "
             id="polygon31"
             style="fill:#010101" /></g></g></g><g
       id="g33"
       transform="translate(2.6935,2.007)"><g
         id="g35"><g
           id="g37"><defs
             id="defs39"><rect
               id="SVGID_5_"
               y="-0.13"
               width="50"
               height="50.259998"
               x="0" /></defs><clipPath
             id="SVGID_6_"><use
               xlink:href="#SVGID_5_"
               overflow="visible"
               id="use43"
               style="overflow:visible"
               x="0"
               y="0"
               width="100%"
               height="100%" /></clipPath><polygon
             clip-path="url(#SVGID_6_)"
             points="8.782,24.219 8.782,22.773 7.254,21.891 3.222,19.563 7.254,17.234 8.782,16.352 8.782,14.905 4.75,17.234 0.717,19.563 4.75,21.891 "
             id="polygon45" /></g></g></g><g
       id="g47"
       transform="translate(2.6935,2.007)"><g
         id="g49"><g
           id="g51"><defs
             id="defs53"><rect
               id="SVGID_7_"
               y="-0.13"
               width="50"
               height="50.259998"
               x="0" /></defs><clipPath
             id="SVGID_8_"><use
               xlink:href="#SVGID_7_"
               overflow="visible"
               id="use57"
               style="overflow:visible"
               x="0"
               y="0"
               width="100%"
               height="100%" /></clipPath><polygon
             clip-path="url(#SVGID_8_)"
             points="16.599,24.219 16.599,22.773 15.071,21.891 11.039,19.563 15.071,17.234 16.599,16.352 16.599,14.905 12.567,17.234 8.535,19.563 12.567,21.891 "
             id="polygon59" /></g></g></g><g
       id="g61"
       transform="translate(2.6935,2.007)"><g
         id="g63"><g
           id="g65"><defs
             id="defs67"><rect
               id="SVGID_9_"
               y="-0.13"
               width="50"
               height="50.259998"
               x="0" /></defs><clipPath
             id="SVGID_10_"><use
               xlink:href="#SVGID_9_"
               overflow="visible"
               id="use71"
               style="overflow:visible"
               x="0"
               y="0"
               width="100%"
               height="100%" /></clipPath><polygon
             clip-path="url(#SVGID_10_)"
             points="41.936,24.219 41.936,22.773 43.463,21.891 47.496,19.563 43.463,17.234 41.936,16.352 41.936,14.905 45.967,17.234 50,19.563 45.967,21.891 "
             id="polygon73" /></g></g></g><g
       id="g75"
       transform="translate(2.6935,2.007)"><g
         id="g77"><g
           id="g79"><defs
             id="defs81"><rect
               id="SVGID_11_"
               y="-0.13"
               width="50"
               height="50.259998"
               x="0" /></defs><clipPath
             id="SVGID_12_"><use
               xlink:href="#SVGID_11_"
               overflow="visible"
               id="use85"
               style="overflow:visible"
               x="0"
               y="0"
               width="100%"
               height="100%" /></clipPath><polygon
             clip-path="url(#SVGID_12_)"
             points="34.117,24.219 34.117,22.773 35.646,21.891 39.678,19.563 35.646,17.234 34.117,16.352 34.117,14.905 38.148,17.234 42.184,19.563 38.148,21.891 "
             id="polygon87" /></g></g></g></g><rect
     x="26.6625"
     y="7.507"
     width="3.0710001"
     height="21.975"
     id="rect89" /></svg>