<?xml version="1.0" encoding="UTF-8" standalone="no"?>
<!-- Generator: Adobe Illustrator 14.0.0, SVG Export Plug-In . SVG Version: 6.00 Build 43363)  -->

<svg
   xmlns:dc="http://purl.org/dc/elements/1.1/"
   xmlns:cc="http://creativecommons.org/ns#"
   xmlns:rdf="http://www.w3.org/1999/02/22-rdf-syntax-ns#"
   xmlns:svg="http://www.w3.org/2000/svg"
   xmlns="http://www.w3.org/2000/svg"
   xmlns:sodipodi="http://sodipodi.sourceforge.net/DTD/sodipodi-0.dtd"
   xmlns:inkscape="http://www.inkscape.org/namespaces/inkscape"
   version="1.1"
   id="Layer_1"
   x="0px"
   y="0px"
   width="19"
   height="19"
   viewBox="0 0 19 19"
   enable-background="new 0 0 18 18"
   xml:space="preserve"
   inkscape:version="0.91 r13725"
   sodipodi:docname="Realization.svg"><metadata
     id="metadata17"><rdf:RDF><cc:Work
         rdf:about=""><dc:format>image/svg+xml</dc:format><dc:type
           rdf:resource="http://purl.org/dc/dcmitype/StillImage" /><dc:title /></cc:Work></rdf:RDF></metadata><defs
     id="defs15" /><sodipodi:namedview
     pagecolor="#ffffff"
     bordercolor="#666666"
     borderopacity="1"
     objecttolerance="10"
     gridtolerance="10"
     guidetolerance="10"
     inkscape:pageopacity="0"
     inkscape:pageshadow="2"
     inkscape:window-width="1280"
     inkscape:window-height="646"
     id="namedview13"
     showgrid="false"
     inkscape:zoom="13.111111"
     inkscape:cx="-4.2711866"
     inkscape:cy="9"
     inkscape:window-x="2031"
     inkscape:window-y="669"
     inkscape:window-maximized="0"
     inkscape:current-layer="Layer_1" /><line
     x1="5.4506941"
     y1="11.53287"
     x2="18.450693"
     y2="11.53287"
     id="line3"
     style="fill:none;stroke:#010101;stroke-dasharray:1, 2, 1, 2, 1, 2" /><path
     d="M 9.4506939,8.5328707"
     id="path5"
     inkscape:connector-curvature="0"
     style="fill:#010101" /><g
     enable-background="new    "
     id="g7"
     transform="translate(0.351,-1.567)"><path
       d="m 9,11 0,-8 3.781,0 c 0.947,0 1.643,0.071 2.072,0.216 0.431,0.143 0.773,0.397 1.037,0.765 0.256,0.367 0.385,0.789 0.385,1.261 0,0.601 -0.194,1.095 -0.588,1.487 -0.396,0.392 -0.981,0.637 -1.764,0.74 0.389,0.203 0.708,0.426 0.967,0.669 0.252,0.244 0.592,0.676 1.019,1.3 l 1.091,1.56 -2.15,0 -1.3,-1.74 C 13.089,8.637 12.776,8.244 12.604,8.082 12.433,7.921 12.252,7.81 12.065,7.749 11.875,7.69 11.572,7.66 11.161,7.66 l -0.365,0 0,3.34 L 9,11 9,11 Z m 1.796,-4.616 1.329,0 c 0.861,0 1.398,-0.035 1.615,-0.099 0.214,-0.066 0.38,-0.178 0.504,-0.339 0.121,-0.16 0.18,-0.359 0.18,-0.6 0,-0.271 -0.078,-0.487 -0.236,-0.653 C 14.026,4.528 13.8,4.424 13.508,4.38 13.362,4.36 12.925,4.354 12.197,4.354 l -1.402,0 10e-4,2.03 0,0 z"
       id="path9"
       inkscape:connector-curvature="0"
       style="fill:#010101" /></g><polygon
     points="7,8 7,12 7,16 4,14 1,12 4,10 "
     id="polygon11"
     style="fill:#98c5ea;stroke:#010101"
     transform="translate(0.45069391,-0.46712927)" /></svg>